<?xml version="1.0" encoding="utf-8"?>
<!-- Generator: Adobe Illustrator 27.6.1, SVG Export Plug-In . SVG Version: 6.00 Build 0)  -->
<svg version="1.1" xmlns="http://www.w3.org/2000/svg" xmlns:xlink="http://www.w3.org/1999/xlink" x="0px" y="0px"
	 viewBox="0 0 3116.1 799.3" style="enable-background:new 0 0 3116.1 799.3;" xml:space="preserve">
<style type="text/css">
	.st0{display:none;}
	.st1{display:inline;}
</style>
<g id="Artwork" class="st0">
	<path class="st1" d="M720,725.9h160v-480H720V725.9z M960,165.9h400V5.9H960V165.9z M720,5.9h160v160H720V5.9z M480,725.9h160V5.9
		H480V725.9z M240,565.9h160V5.9H240V565.9z M0,725.9h160V5.9H0V725.9z M960,725.9h160v-480H960V725.9z"/>
	<g class="st1">
		<path d="M1543.1,425.9h60.8v249.2h141v50.8h-201.8V425.9z"/>
		<path d="M1758.3,618c0-63.8,43.2-113.3,106.2-113.3c69.2,0,106.2,52.9,106.2,129.7h-156.1c4.2,33.1,22.7,53.7,55,53.7
			c22.2,0,35.2-10.1,41.5-26.4h56.2c-8,38.2-42,70.5-97.3,70.5C1798.6,732.2,1758.3,682.2,1758.3,618z M1815.4,595h95.7
			c-1.7-27.3-19.7-46.2-45.7-46.2C1835.1,548.8,1820.4,566.9,1815.4,595z"/>
		<path d="M2125.9,702h-0.8c-10.9,16.4-26.4,29-63.4,29c-44.1,0-75.1-23.1-75.1-65.9c0-47.4,38.6-62.5,86.4-69.2
			c35.7-5,52-8,52-24.3c0-15.5-12.2-25.6-36.1-25.6c-26.9,0-39.9,9.7-41.5,30.2h-50.8c1.7-37.8,29.8-70.9,92.7-70.9
			c64.6,0,90.6,29,90.6,79.3V694c0,16.4,2.5,26,7.6,29.8v2.1h-55C2129.2,721.7,2127.1,711.6,2125.9,702z M2126.3,649.9v-32.3
			c-10.1,5.9-25.6,9.2-39.9,12.6c-29.8,6.7-44.5,13.4-44.5,33.6c0,20.1,13.4,27.3,33.6,27.3C2108.2,691.1,2126.3,670.9,2126.3,649.9
			z"/>
		<path d="M2271,545h1.3c13-24.3,27.7-36.9,52.9-36.9c6.3,0,10.1,0.4,13.4,1.7v49.9h-1.3c-37.3-3.8-64.2,15.9-64.2,61.3v104.9h-57.1
			V510.6h55V545z"/>
		<path d="M2419.2,540h1.3c14.7-23.1,34.4-35.2,63.8-35.2c44.5,0,74.3,33.6,74.3,80.6v140.6h-57.1V593.7c0-23.1-13.4-39.4-37.3-39.4
			c-25.2,0-43.6,20.1-43.6,49.5v122.1h-57.1V510.6h55.8V540z"/>
		<path d="M2593.7,425.9h57.1v51.2h-57.1V425.9z M2593.7,510.6h57.1v215.2h-57.1V510.6z"/>
		<path d="M2743.5,540h1.3c14.7-23.1,34.4-35.2,63.8-35.2c44.5,0,74.3,33.6,74.3,80.6v140.6h-57.1V593.7c0-23.1-13.4-39.4-37.3-39.4
			c-25.2,0-43.6,20.1-43.6,49.5v122.1h-57.1V510.6h55.8V540z"/>
		<path d="M2912.2,732.2h56.6c4.6,13.4,16.8,23.9,43.2,23.9c32.3,0,47.8-15.5,47.8-44.9v-23.5h-1.3c-12.6,14.3-29,25.2-56.2,25.2
			c-47.8,0-94.8-37.8-94.8-102.8c0-64.2,38.6-105.3,93.1-105.3c26.9,0,46.6,10.5,59.6,28.5h0.8v-22.7h55v198.9
			c0,30.2-9.7,50.8-25.6,65.5c-18,16.8-45.7,24.3-77.6,24.3C2954.1,799.3,2918,774.1,2912.2,732.2z M3062.8,608.8
			c0-31.5-16.8-58.3-51.2-58.3c-29,0-48.3,22.7-48.3,58.7c0,36.5,19.3,57.9,48.7,57.9C3048.1,667.1,3062.8,640.7,3062.8,608.8z"/>
	</g>
	<g class="st1">
		<path d="M1530.1,156.5c0-89.8,56.2-156.5,144.8-156.5c88.5,0,144.3,66.7,144.3,156.5c0,89.8-55.8,156.1-144.3,156.1
			C1586.3,312.6,1530.1,246.3,1530.1,156.5z M1757.1,156.5c0-60-26.9-106.6-81.8-106.6s-83.1,46.6-83.1,106.6
			c0,59.6,28.1,106.2,83.1,106.2S1757.1,216.1,1757.1,156.5z"/>
		<path d="M1847.7,90.6h55v26.9h1.3c13.8-18.9,34-32.7,63.4-32.7c57.1,0,93.6,46.6,93.6,113.7c0,69.7-37.8,113.7-93.1,113.7
			c-30.2,0-49.9-12.2-62.1-30.6h-0.8v94.8h-57.1V90.6z M2002.9,200.1c0-40.7-14.3-69.2-49.5-69.2c-35.7,0-49.9,30.6-49.9,69.2
			c0,39,18,64.6,52,64.6C1984.5,264.8,2002.9,240.8,2002.9,200.1z"/>
		<path d="M2076.8,198c0-63.8,43.2-113.3,106.2-113.3c69.2,0,106.2,52.9,106.2,129.7H2133c4.2,33.1,22.7,53.7,55,53.7
			c22.2,0,35.2-10.1,41.5-26.4h56.2c-8,38.2-42,70.5-97.3,70.5C2117.1,312.2,2076.8,262.2,2076.8,198z M2133.8,175h95.7
			c-1.7-27.3-19.7-46.2-45.7-46.2C2153.6,128.8,2138.9,146.9,2133.8,175z"/>
		<path d="M2371.3,120h1.3c14.7-23.1,34.4-35.2,63.8-35.2c44.5,0,74.3,33.6,74.3,80.6v140.6h-57.1V173.7c0-23.1-13.4-39.4-37.3-39.4
			c-25.2,0-43.6,20.1-43.6,49.5v122.1h-57.1V90.6h55.8V120z"/>
	</g>
</g>
<g id="Artwork_copy">
	<path d="M720,725.9h160v-480H720V725.9z M960,165.9h400V5.9H960V165.9z M720,5.9h160v160H720V5.9z M480,725.9h160V5.9H480V725.9z
		 M240,565.9h160V5.9H240V565.9z M0,725.9h160V5.9H0V725.9z M960,725.9h160v-480H960V725.9z"/>
	<g>
		<path d="M1543.1,425.9h60.8v249.2h141v50.8h-201.8V425.9z"/>
		<path d="M1758.3,618c0-63.8,43.2-113.3,106.2-113.3c69.2,0,106.2,52.9,106.2,129.7h-156.1c4.2,33.1,22.7,53.7,55,53.7
			c22.2,0,35.2-10.1,41.5-26.4h56.2c-8,38.2-42,70.5-97.3,70.5C1798.6,732.2,1758.3,682.2,1758.3,618z M1815.4,595h95.7
			c-1.7-27.3-19.7-46.2-45.7-46.2C1835.1,548.8,1820.4,566.9,1815.4,595z"/>
		<path d="M2125.9,702h-0.8c-10.9,16.4-26.4,29-63.4,29c-44.1,0-75.1-23.1-75.1-65.9c0-47.4,38.6-62.5,86.4-69.2
			c35.7-5,52-8,52-24.3c0-15.5-12.2-25.6-36.1-25.6c-26.9,0-39.9,9.7-41.5,30.2h-50.8c1.7-37.8,29.8-70.9,92.7-70.9
			c64.6,0,90.6,29,90.6,79.3V694c0,16.4,2.5,26,7.6,29.8v2.1h-55C2129.2,721.7,2127.1,711.6,2125.9,702z M2126.3,649.9v-32.3
			c-10.1,5.9-25.6,9.2-39.9,12.6c-29.8,6.7-44.5,13.4-44.5,33.6c0,20.1,13.4,27.3,33.6,27.3C2108.2,691.1,2126.3,670.9,2126.3,649.9
			z"/>
		<path d="M2271,545h1.3c13-24.3,27.7-36.9,52.9-36.9c6.3,0,10.1,0.4,13.4,1.7v49.9h-1.3c-37.3-3.8-64.2,15.9-64.2,61.3v104.9h-57.1
			V510.6h55V545z"/>
		<path d="M2419.2,540h1.3c14.7-23.1,34.4-35.2,63.8-35.2c44.5,0,74.3,33.6,74.3,80.6v140.6h-57.1V593.7c0-23.1-13.4-39.4-37.3-39.4
			c-25.2,0-43.6,20.1-43.6,49.5v122.1h-57.1V510.6h55.8V540z"/>
		<path d="M2593.7,425.9h57.1v51.2h-57.1V425.9z M2593.7,510.6h57.1v215.2h-57.1V510.6z"/>
		<path d="M2743.5,540h1.3c14.7-23.1,34.4-35.2,63.8-35.2c44.5,0,74.3,33.6,74.3,80.6v140.6h-57.1V593.7c0-23.1-13.4-39.4-37.3-39.4
			c-25.2,0-43.6,20.1-43.6,49.5v122.1h-57.1V510.6h55.8V540z"/>
		<path d="M2912.2,732.2h56.6c4.6,13.4,16.8,23.9,43.2,23.9c32.3,0,47.8-15.5,47.8-44.9v-23.5h-1.3c-12.6,14.3-29,25.2-56.2,25.2
			c-47.8,0-94.8-37.8-94.8-102.8c0-64.2,38.6-105.3,93.1-105.3c26.9,0,46.6,10.5,59.6,28.5h0.8v-22.7h55v198.9
			c0,30.2-9.7,50.8-25.6,65.5c-18,16.8-45.7,24.3-77.6,24.3C2954.1,799.3,2918,774.1,2912.2,732.2z M3062.8,608.8
			c0-31.5-16.8-58.3-51.2-58.3c-29,0-48.3,22.7-48.3,58.7c0,36.5,19.3,57.9,48.7,57.9C3048.1,667.1,3062.8,640.7,3062.8,608.8z"/>
	</g>
	<g>
		<path d="M1530.1,156.5c0-89.8,56.2-156.5,144.8-156.5c88.5,0,144.3,66.7,144.3,156.5c0,89.8-55.8,156.1-144.3,156.1
			C1586.3,312.6,1530.1,246.3,1530.1,156.5z M1757.1,156.5c0-60-26.9-106.6-81.8-106.6s-83.1,46.6-83.1,106.6
			c0,59.6,28.1,106.2,83.1,106.2S1757.1,216.1,1757.1,156.5z"/>
		<path d="M1847.7,90.6h55v26.9h1.3c13.8-18.9,34-32.7,63.4-32.7c57.1,0,93.6,46.6,93.6,113.7c0,69.7-37.8,113.7-93.1,113.7
			c-30.2,0-49.9-12.2-62.1-30.6h-0.8v94.8h-57.1V90.6z M2002.9,200.1c0-40.7-14.3-69.2-49.5-69.2c-35.7,0-49.9,30.6-49.9,69.2
			c0,39,18,64.6,52,64.6C1984.5,264.8,2002.9,240.8,2002.9,200.1z"/>
		<path d="M2076.8,198c0-63.8,43.2-113.3,106.2-113.3c69.2,0,106.2,52.9,106.2,129.7H2133c4.2,33.1,22.7,53.7,55,53.7
			c22.2,0,35.2-10.1,41.5-26.4h56.2c-8,38.2-42,70.5-97.3,70.5C2117.1,312.2,2076.8,262.2,2076.8,198z M2133.8,175h95.7
			c-1.7-27.3-19.7-46.2-45.7-46.2C2153.6,128.8,2138.9,146.9,2133.8,175z"/>
		<path d="M2371.3,120h1.3c14.7-23.1,34.4-35.2,63.8-35.2c44.5,0,74.3,33.6,74.3,80.6v140.6h-57.1V173.7c0-23.1-13.4-39.4-37.3-39.4
			c-25.2,0-43.6,20.1-43.6,49.5v122.1h-57.1V90.6h55.8V120z"/>
	</g>
</g>
</svg>
